# xmcd
#
# Track frame offsets: 
#        150
#        25601
#        35014
#        48072
#        63212
#        76582
#        96786
#        161208
#
# Disc length: 2634 seconds
#
# Revision: 0
# Processed by: cddbd v1.5.2PL0 Copyright (c) Steve Scherf et al.
# Submitted via: ExactAudioCopy v1.0b4
#
DISCID=520a4808
DTITLE=Ten Years After - Hear Them Calling (LP1)
DYEAR=1976
DGENRE=Blues
TTITLE0=Hear Me Calling
TTITLE1=Love Until I Die
TTITLE2=Rock Your Mama
TTITLE3=A Sad Song
TTITLE4=Losing The Dogs
TTITLE5=Going To Try
TTITLE6=Boogie On
TTITLE7=No Title
EXTD=
EXTT0=
EXTT1=
EXTT2=
EXTT3=
EXTT4=
EXTT5=
EXTT6=
EXTT7=
PLAYORDER=
